<svg width="16" height="14" viewBox="0 0 16 14" fill="none" xmlns="http://www.w3.org/2000/svg">
<path d="M15.753 0.604139C15.5575 0.362913 15.2647 0.22998 14.9287 0.22998C14.7458 0.22998 14.5523 0.268912 14.3534 0.345542L0.809593 5.56344C0.0908451 5.84027 -0.00595631 6.2557 0.000269251 6.47882C0.00649481 6.70181 0.12649 7.11108 0.859641 7.34639C0.864036 7.34787 0.86843 7.3491 0.872825 7.35046L2.77223 7.89894L12.0227 3.12925C12.2532 3.01024 12.5356 3.10264 12.6534 3.33536C12.746 3.51819 12.7088 3.73305 12.577 3.87449L12.5774 3.87486L7.43408 9.3904L7.28735 9.99051L9.12402 11.4832L11.6692 13.5516C11.6714 13.5533 11.6736 13.5552 11.6759 13.5569C11.9559 13.7762 12.2618 13.892 12.5605 13.8921C13.1443 13.8921 13.609 13.4561 13.7444 12.7815L15.9635 1.72255C16.0525 1.27878 15.9778 0.881463 15.753 0.604139Z" fill="white"/>
</svg>
