<svg width="50" height="50" viewBox="0 0 50 50" fill="none" xmlns="http://www.w3.org/2000/svg">
<path d="M47.6904 30.702C46.6842 40.8328 38.4755 48.9754 28.3375 49.9069C16.3532 51.0082 6.13396 42.1969 4.94859 30.7444H2.8365C1.55243 30.7444 0.749895 29.3542 1.39205 28.2423L6.11574 20.0624C6.75782 18.9506 8.36272 18.9507 9.00471 20.0625L13.7275 28.2424C14.3695 29.3544 13.567 30.7444 12.283 30.7444H10.4443C11.6388 39.295 19.5992 45.7078 28.7263 44.3701C35.4801 43.3803 40.9585 38.0518 42.1064 31.323C43.8246 21.2518 36.0747 12.4865 26.3163 12.4865C23.1518 12.4865 20.0974 13.4047 17.4738 15.1433C16.2561 15.9502 14.5682 15.7905 13.6749 14.6349C12.7023 13.3766 13.0059 11.5802 14.3029 10.7044C17.1179 8.80278 20.309 7.61438 23.6524 7.20057V4.1H21.4642C20.7113 4.1 20.101 3.48971 20.101 2.73676V1.36324C20.101 0.610294 20.7113 0 21.4642 0H31.6122C32.365 0 32.9754 0.610294 32.9754 1.36324V2.73676C32.9754 3.48962 32.3651 4.1 31.6122 4.1H29.2019V7.23292C40.3826 8.7415 48.8648 18.8776 47.6904 30.702ZM48.3965 10.0707L44.286 6.27124C43.7331 5.76021 42.8707 5.79412 42.3595 6.34698L41.2722 7.52337C40.7611 8.07623 40.795 8.93873 41.3479 9.44984L45.4584 13.2492C46.0113 13.7601 46.8737 13.7263 47.3849 13.1734L48.4722 11.9971C48.9833 11.4442 48.9494 10.5817 48.3965 10.0707ZM26.2517 15.2891V28.622H39.4514C39.4516 20.5024 33.2912 15.2891 26.2517 15.2891Z" fill="#131A22"/>
</svg>
