<svg width="50" height="50" viewBox="0 0 50 50" fill="none" xmlns="http://www.w3.org/2000/svg">
<path d="M49.9908 17.5C49.9083 16.0742 48.2125 14.96 44.8208 14.11C44.935 13.86 44.9992 13.6 45 13.33V7.5H44.9858C44.6875 2.64333 24.7858 2.5 22.5 2.5C20.2142 2.5 0.3125 2.64333 0.0141667 7.5H0V7.60833V13.3325C0.00416667 14.9158 2.0475 16.155 5.0875 17.0775C5.04583 17.2158 5.02083 17.3567 5.0125 17.5H5V17.6083V23.3225C1.725 24.1658 0.0891667 25.2642 0.00833333 26.6667H0V26.775V32.4992C0.0025 33.6017 0.996667 34.5367 2.62333 35.3158C2.5625 35.4842 2.52333 35.6567 2.5125 35.8333H2.5V35.9417V41.6658C2.50667 44.4375 8.7475 46.1583 15.6817 46.9617C15.7325 46.9717 15.7792 46.9925 15.8333 46.9925C15.8492 46.9925 15.8625 46.9842 15.8783 46.9833C17.215 47.1342 18.5733 47.2517 19.9175 47.3358C19.9458 47.3392 19.9708 47.3525 20 47.3525C20.0158 47.3525 20.0283 47.3442 20.0433 47.3433C21.75 47.4475 23.4292 47.5 25 47.5C26.5708 47.5 28.25 47.4475 29.9567 47.3433C29.9717 47.3442 29.985 47.3525 30 47.3525C30.0292 47.3525 30.0542 47.3383 30.0825 47.3358C31.4267 47.2517 32.785 47.135 34.1217 46.9833C34.1375 46.9833 34.1508 46.9917 34.1667 46.9917C34.2208 46.9917 34.2675 46.9708 34.3183 46.9608C41.2525 46.1575 47.4925 44.4358 47.5 41.6633V35.8333H47.4867C47.4283 34.8117 46.5575 33.9592 44.8375 33.2467C44.9425 33.0058 45 32.7558 45 32.4967V27.05C47.9917 26.13 49.9958 24.8992 50 23.33V17.5H49.9908ZM5.83333 15.5617V11.5358C6.61167 11.7458 7.44833 11.9375 8.33333 12.1117V16.1792C8.23083 16.1575 8.125 16.1358 8.025 16.1142C7.58167 16.0167 7.14917 15.915 6.73583 15.8075C6.42083 15.7267 6.12167 15.6442 5.83333 15.5617ZM43.1425 13.735L43.1192 13.73L42.8158 13.9658C42.3758 14.3083 41.7 14.655 40.8333 14.99V11.0258C41.8242 10.6808 42.6675 10.2983 43.3333 9.87917V13.3275C43.3333 13.4542 43.2667 13.5908 43.1425 13.735ZM20.9792 32.4858C21.2083 32.49 21.4375 32.4933 21.6667 32.4958V36.6608C21.505 36.6592 21.3433 36.6592 21.1825 36.6567C21.1092 36.6558 21.0383 36.6533 20.9658 36.6525C20.5842 36.6458 20.2042 36.6367 19.8267 36.625C19.78 36.6233 19.7333 36.6217 19.6867 36.62C19.2325 36.605 18.7817 36.5858 18.3342 36.5642V32.4042C19.1692 32.4433 20.0083 32.4692 20.8475 32.4842C20.8908 32.4842 20.935 32.485 20.9792 32.4858ZM24.1533 32.4833C24.9925 32.4675 25.8317 32.4417 26.6667 32.4033V36.5642C26.4883 36.5733 26.3092 36.5817 26.1283 36.5892C25.6283 36.61 25.1208 36.6275 24.605 36.64C24.4833 36.6433 24.3608 36.645 24.2383 36.6475C23.9408 36.6533 23.6358 36.655 23.3342 36.6575V32.495C23.5633 32.4925 23.7925 32.4892 24.0217 32.485C24.065 32.485 24.1092 32.4842 24.1533 32.4833ZM28.8883 36.4233C28.705 36.4375 28.52 36.4517 28.3333 36.465V32.3092C29.1783 32.2533 30.0133 32.1867 30.8333 32.1067V36.245C30.3183 36.2992 29.7917 36.35 29.2508 36.3942C29.13 36.405 29.0092 36.4142 28.8883 36.4233ZM32.5 31.9267C33.3592 31.8233 34.1933 31.7058 35 31.575V35.6667C34.215 35.805 33.3808 35.9325 32.5 36.0483V31.9267ZM14.5992 36.29C14.5142 36.2817 14.43 36.2725 14.3458 36.2642C14.2858 36.2583 14.2267 36.2508 14.1667 36.245V32.1075C14.9867 32.1867 15.8217 32.2542 16.6667 32.31V36.4625C15.9667 36.4125 15.275 36.3558 14.5992 36.29ZM12.5 31.9267V36.0483C11.6192 35.9325 10.785 35.805 10 35.6667V31.575C10.8067 31.7058 11.6408 31.8242 12.5 31.9267ZM36.6667 35.345V31.2775C37.5517 31.1033 38.3883 30.9117 39.1667 30.7017V34.7275C38.4242 34.9417 37.5883 35.1492 36.6667 35.345ZM20.9792 13.3192C21.2083 13.3233 21.4375 13.3267 21.6667 13.3292V17.49C20.545 17.4792 19.43 17.45 18.3333 17.395V13.2375C19.1683 13.2767 20.0075 13.3025 20.8467 13.3175C20.8908 13.3175 20.935 13.3183 20.9792 13.3192ZM24.1533 13.3167C24.9925 13.3008 25.8317 13.275 26.6667 13.2367V17.3942C26.525 17.4008 26.3892 17.4108 26.2467 17.4175C26.235 17.4183 26.2233 17.4183 26.2108 17.4192C25.6517 17.4442 25.0817 17.4625 24.5042 17.4758C24.4142 17.4783 24.3242 17.4792 24.2342 17.4817C23.9375 17.4875 23.6342 17.4883 23.3333 17.4917V13.3292C23.5625 13.3267 23.7917 13.3233 24.0208 13.3192C24.065 13.3183 24.1092 13.3175 24.1533 13.3167ZM29.1533 23.3167C29.9925 23.3008 30.8317 23.275 31.6667 23.2367V27.3933C30.5717 27.4475 29.4583 27.4775 28.3333 27.4892V23.3292C28.5625 23.3267 28.7917 23.3233 29.0208 23.3192C29.065 23.3183 29.1092 23.3175 29.1533 23.3167ZM21.1225 27.2575C20.5892 27.2158 20.0683 27.17 19.56 27.1192C19.4508 27.1083 19.3417 27.0967 19.2333 27.0858C19.2108 27.0833 19.1892 27.08 19.1667 27.0783V22.94C19.9867 23.0192 20.8217 23.0867 21.6667 23.1425V27.2958C21.5992 27.2908 21.5275 27.2875 21.46 27.2825C21.3467 27.2742 21.2342 27.2658 21.1225 27.2575ZM15.9542 26.66C15.6242 26.6075 15.3142 26.5508 15 26.4958V22.4092C15.8067 22.54 16.6408 22.6575 17.5 22.7608V26.8825C16.99 26.815 16.4908 26.745 16.0117 26.67C15.9925 26.6658 15.9733 26.6625 15.9542 26.66ZM25.9792 23.3192C26.2083 23.3233 26.4375 23.3267 26.6667 23.3292V27.49C26.2608 27.4858 25.8517 27.4842 25.4558 27.475C25.395 27.4733 25.3317 27.4725 25.2708 27.4717C24.6442 27.4558 24.0317 27.4317 23.43 27.4025C23.3975 27.4008 23.365 27.3992 23.3333 27.3983V23.2375C24.1683 23.2767 25.0075 23.3025 25.8467 23.3175C25.8908 23.3175 25.935 23.3183 25.9792 23.3192ZM34.3683 27.2175C34.3383 27.22 34.3092 27.2225 34.2792 27.225C33.9683 27.2508 33.6475 27.2675 33.3325 27.29V23.1417C34.1775 23.0858 35.0125 23.0192 35.8325 22.9392V27.0733C35.3492 27.125 34.8658 27.1758 34.3683 27.2175ZM14.1667 17.075V12.94C14.9867 13.0192 15.8217 13.0867 16.6667 13.1425V17.2908C15.8183 17.23 14.9817 17.1608 14.1667 17.075ZM30.8333 17.0733C30.0283 17.1583 29.195 17.2325 28.3333 17.2942V13.1425C29.1783 13.0867 30.0133 13.02 30.8333 12.94V17.0733ZM32.5 12.76C33.3592 12.6567 34.1933 12.5392 35 12.4083V16.4933C34.21 16.6325 33.3783 16.7608 32.5 16.8767V12.76ZM36.6667 16.1725V12.1117C37.5517 11.9375 38.3883 11.7458 39.1667 11.5358V15.5525C38.42 15.77 37.5792 15.9775 36.6667 16.1725ZM12.5 12.76V16.8775C12.335 16.8558 12.1633 16.8383 12 16.8158C11.8933 16.8008 11.7917 16.785 11.6867 16.77C11.205 16.7008 10.7342 16.6267 10.2725 16.5492C10.18 16.5333 10.0908 16.5167 10 16.5008V12.4092C10.8067 12.5392 11.6408 12.6575 12.5 12.76ZM13.3333 22.1108V26.1717C12.4125 25.9742 11.5775 25.7642 10.8333 25.5458V21.535C11.6117 21.745 12.4483 21.9375 13.3333 22.1108ZM39.9225 26.5142C39.5567 26.5775 39.1875 26.64 38.8083 26.6975C38.5908 26.7308 38.3683 26.7625 38.145 26.7942C37.9342 26.8242 37.715 26.85 37.5008 26.8775V22.76C38.36 22.6567 39.1942 22.5392 40.0008 22.4083V26.5C39.9742 26.505 39.9483 26.51 39.9225 26.5142ZM9.16667 21.0258V24.985C7.85667 24.4792 7.01167 23.9625 6.73667 23.5025L6.68083 23.4092C6.67583 23.3833 6.6675 23.3558 6.66667 23.33V19.8792C7.3325 20.2983 8.17583 20.6808 9.16667 21.0258ZM8.33333 31.2775V35.345C7.56833 35.1825 6.8625 35.0117 6.22 34.8367C6.11833 34.8083 6.01333 34.7808 5.91417 34.7517C5.88667 34.7433 5.86083 34.7358 5.83333 34.7283V30.7025C6.61167 30.9117 7.44833 31.1042 8.33333 31.2775ZM10.8333 40.4442V44.5117C9.91167 44.3158 9.07583 44.1083 8.33333 43.8942V39.8683C9.11167 40.0783 9.94833 40.2708 10.8333 40.4442ZM12.5 40.7425C13.3067 40.8733 14.1408 40.9908 15 41.0942V45.2158C14.1192 45.1 13.285 44.9725 12.5 44.8342V40.7425ZM16.6667 41.2733C17.4867 41.3525 18.3217 41.42 19.1667 41.4758V45.6317C18.3008 45.5708 17.4675 45.4967 16.6667 45.4125V41.2733ZM20.8333 41.57C21.6683 41.6092 22.5075 41.635 23.3467 41.65C23.3908 41.6508 23.435 41.6517 23.4783 41.6525C23.7075 41.6567 23.9367 41.66 24.1658 41.6625V45.8283C23.0142 45.8175 21.9025 45.7842 20.8325 45.7317V41.57H20.8333ZM25.8333 41.6617C26.0625 41.6592 26.2917 41.6558 26.5208 41.6517C26.565 41.6508 26.6092 41.65 26.6533 41.6492C27.4925 41.6333 28.3317 41.6075 29.1667 41.5692V45.73C28.0967 45.7825 26.985 45.8158 25.8333 45.8267V41.6617ZM30.8333 41.4758C31.6783 41.42 32.5133 41.3533 33.3333 41.2733V45.4117C32.5325 45.4958 31.6992 45.57 30.8333 45.6308V41.4758ZM35 41.0933C35.8592 40.99 36.6933 40.8725 37.5 40.7417V44.8333C36.715 44.9717 35.8808 45.0992 35 45.215V41.0933ZM39.1667 40.4442C40.0517 40.27 40.8883 40.0783 41.6667 39.8683V43.8942C40.9242 44.1083 40.0883 44.3158 39.1667 44.5117V40.4442ZM43.2433 32.7675L42.9592 33.0167C42.5217 33.4025 41.7925 33.7917 40.8333 34.1667V30.1933C41.8242 29.8483 42.6675 29.4658 43.3333 29.0467V32.495C43.3333 32.5808 43.3017 32.6725 43.2433 32.7675ZM43.8033 25.6633C43.3883 25.7792 42.9492 25.8875 42.5008 25.9933C42.2933 26.0417 42.0817 26.09 41.865 26.1367C41.8008 26.1508 41.7325 26.1633 41.6675 26.1775V22.1117C42.5525 21.9375 43.3892 21.7458 44.1675 21.5358V25.5617C44.0475 25.595 43.9267 25.6292 43.8033 25.6633ZM1.66667 13.33V9.87917C2.3325 10.2983 3.17583 10.6808 4.16667 11.0258V15.0158C2.54583 14.4083 1.66833 13.7992 1.66667 13.33ZM1.66667 32.4967V29.0458C2.3325 29.465 3.17583 29.8475 4.16667 30.1925V34.1667L3.69083 33.9817L3.68083 33.9917C2.3725 33.4492 1.66833 32.9167 1.66667 32.4967ZM4.16667 41.6633V38.2125C4.8325 38.6317 5.67583 39.0142 6.66667 39.3592V43.3492C5.04583 42.7417 4.16833 42.1325 4.16667 41.6633ZM43.3333 43.3492V39.36C44.3242 39.015 45.1675 38.6325 45.8333 38.2133V41.6617C45.8325 42.1308 44.9542 42.7408 43.3333 43.3492ZM45.8333 25.0158V21.0267C46.8242 20.6817 47.6675 20.2992 48.3333 19.88V23.3283C48.3325 23.7975 47.4542 24.4075 45.8333 25.0158Z" fill="#131A22"/>
</svg>
